<svg width="20" height="20" viewBox="0 0 20 20" fill="none" xmlns="http://www.w3.org/2000/svg">
<path d="M10 1.6665C5.40502 1.6665 1.66669 5.40484 1.66669 9.99984C1.66669 14.5948 5.40502 18.3332 10 18.3332C14.595 18.3332 18.3334 14.5948 18.3334 9.99984C18.3334 5.40484 14.595 1.6665 10 1.6665ZM11.9004 12.7336C11.7784 12.8557 11.6184 12.9165 11.4584 12.9165C11.2984 12.9165 11.1384 12.8557 11.0163 12.7336L8.93294 10.6503C8.81585 10.5328 8.75002 10.374 8.75002 10.2082V5.62484C8.75002 5.27942 9.0296 4.99984 9.37502 4.99984C9.72044 4.99984 10 5.27942 10 5.62484V9.94942L11.9004 11.8498C12.1442 12.0936 12.1442 12.4894 11.9004 12.7336Z" fill="white"/>
</svg>
