<svg width="20" height="20" viewBox="0 0 20 20" fill="none" xmlns="http://www.w3.org/2000/svg">
<path d="M15.9106 2.21279C15.7959 2.22299 15.6816 2.24659 15.5705 2.28441L8.33334 4.75185V13.5816L15.5713 16.0491C16.0155 16.2003 16.5084 16.1275 16.8905 15.8546C17.2717 15.5816 17.5 15.1384 17.5 14.6688V10.918C18.1102 10.6705 18.5417 10.0741 18.5417 9.37506C18.5417 8.67606 18.1102 8.07962 17.5 7.8321V3.66462C17.5 3.19503 17.2721 2.75182 16.8905 2.47891C16.6039 2.27391 16.2548 2.18219 15.9106 2.21279ZM7.08334 5.04645L3.78256 5.30036C2.59547 5.39161 1.66667 6.3947 1.66667 7.5847V10.7488C1.66667 11.9071 2.54772 12.8887 3.68897 13.0242L4.08366 16.578C4.16825 17.3409 4.81152 17.9167 5.57943 17.9167C6.40902 17.9167 7.08334 17.2416 7.08334 16.412V5.04645Z" fill="#F79222"/>
</svg>
