<svg width="20" height="20" viewBox="0 0 20 20" fill="none" xmlns="http://www.w3.org/2000/svg">
<path d="M16.4 1.6001H3.60001C2.49601 1.6001 1.60001 2.4961 1.60001 3.6001V16.4001C1.60001 17.5041 2.49601 18.4001 3.60001 18.4001H16.4C17.504 18.4001 18.4 17.5041 18.4 16.4001V3.6001C18.4 2.4961 17.504 1.6001 16.4 1.6001ZM14.8 7.6001H14C13.144 7.6001 12.8 7.8001 12.8 8.4001V9.6001H14.8L14.4 11.6001H12.8V17.6001H10.8V11.6001H9.20001V9.6001H10.8V8.4001C10.8 6.8001 11.6 5.6001 13.2 5.6001C14.36 5.6001 14.8 6.0001 14.8 6.0001V7.6001Z" fill="#F79222"/>
</svg>
