<svg width="20" height="20" viewBox="0 0 20 20" fill="none" xmlns="http://www.w3.org/2000/svg">
<path d="M16.4 1.6001H3.59998C2.49598 1.6001 1.59998 2.4961 1.59998 3.6001V16.4001C1.59998 17.5041 2.49598 18.4001 3.59998 18.4001H16.4C17.504 18.4001 18.4 17.5041 18.4 16.4001V3.6001C18.4 2.4961 17.504 1.6001 16.4 1.6001ZM6.79998 8.0001V15.6001H4.39998V8.0001H6.79998ZM4.39998 5.7881C4.39998 5.2281 4.87998 4.8001 5.59998 4.8001C6.31998 4.8001 6.77198 5.2281 6.79998 5.7881C6.79998 6.3481 6.35198 6.8001 5.59998 6.8001C4.87998 6.8001 4.39998 6.3481 4.39998 5.7881ZM15.6 15.6001H13.2C13.2 15.6001 13.2 11.8961 13.2 11.6001C13.2 10.8001 12.8 10.0001 11.8 9.9841H11.768C10.8 9.9841 10.4 10.8081 10.4 11.6001C10.4 11.9641 10.4 15.6001 10.4 15.6001H7.99998V8.0001H10.4V9.0241C10.4 9.0241 11.172 8.0001 12.724 8.0001C14.312 8.0001 15.6 9.0921 15.6 11.3041V15.6001Z" fill="#D0D0D1"/>
</svg>
