<svg width="20" height="20" viewBox="0 0 20 20" fill="none" xmlns="http://www.w3.org/2000/svg">
<path d="M11.0417 1.66658C10.9588 1.66541 10.8766 1.68071 10.7998 1.7116C10.7229 1.74248 10.653 1.78833 10.594 1.84648C10.535 1.90464 10.4882 1.97393 10.4562 2.05034C10.4242 2.12675 10.4078 2.20876 10.4078 2.29158C10.4078 2.37441 10.4242 2.45641 10.4562 2.53282C10.4882 2.60924 10.535 2.67853 10.594 2.73668C10.653 2.79484 10.7229 2.84069 10.7998 2.87157C10.8766 2.90245 10.9588 2.91775 11.0417 2.91658C14.1555 2.91658 16.6667 5.42772 16.6667 8.54158C16.6655 8.6244 16.6808 8.70663 16.7117 8.78348C16.7426 8.86034 16.7884 8.93029 16.8466 8.98927C16.9047 9.04825 16.974 9.09509 17.0504 9.12706C17.1268 9.15902 17.2088 9.17549 17.2917 9.17549C17.3745 9.17549 17.4565 9.15902 17.5329 9.12706C17.6093 9.09509 17.6786 9.04825 17.7368 8.98927C17.7949 8.93029 17.8408 8.86034 17.8717 8.78348C17.9025 8.70663 17.9178 8.6244 17.9167 8.54158C17.9167 4.75212 14.8311 1.66658 11.0417 1.66658ZM5.58187 1.67147C5.37382 1.65529 5.15975 1.67833 4.94954 1.74552L4.05273 2.03279C3.16315 2.31696 2.48156 3.07848 2.26156 4.03556C1.73864 6.30973 2.366 9.07831 4.14225 12.3412C5.91725 15.6 7.86219 17.5593 9.97803 18.2193C10.8743 18.4989 11.8436 18.2524 12.522 17.5715L13.2031 16.8871C13.839 16.2488 13.9313 15.21 13.4188 14.4571L12.3918 12.9483C11.9509 12.3008 11.168 12.026 10.4492 12.2655L8.88835 12.7864C8.68001 12.856 8.44633 12.8194 8.278 12.6781C7.64258 12.1444 7.10347 11.4964 6.66097 10.7356C6.21764 9.97309 5.93158 9.20001 5.80241 8.41626C5.76866 8.21126 5.84689 8.00376 5.99772 7.86043L7.33643 6.59009C7.90393 6.05175 8.07657 5.18604 7.76449 4.44979L7.04834 2.76033C6.77834 2.12346 6.20601 1.72 5.58187 1.67147ZM11.0417 4.16658C10.9588 4.16541 10.8766 4.18071 10.7998 4.2116C10.7229 4.24248 10.653 4.28833 10.594 4.34648C10.535 4.40464 10.4882 4.47393 10.4562 4.55034C10.4242 4.62675 10.4078 4.70876 10.4078 4.79158C10.4078 4.87441 10.4242 4.95641 10.4562 5.03282C10.4882 5.10924 10.535 5.17853 10.594 5.23668C10.653 5.29484 10.7229 5.34069 10.7998 5.37157C10.8766 5.40245 10.9588 5.41775 11.0417 5.41658C12.7752 5.41658 14.1667 6.80804 14.1667 8.54158C14.1655 8.6244 14.1808 8.70663 14.2117 8.78348C14.2426 8.86034 14.2884 8.93029 14.3466 8.98927C14.4047 9.04825 14.474 9.09509 14.5504 9.12706C14.6268 9.15902 14.7088 9.17549 14.7917 9.17549C14.8745 9.17549 14.9565 9.15902 15.0329 9.12706C15.1093 9.09509 15.1786 9.04825 15.2368 8.98927C15.2949 8.93029 15.3408 8.86034 15.3717 8.78348C15.4025 8.70663 15.4178 8.6244 15.4167 8.54158C15.4167 6.13262 13.4506 4.16658 11.0417 4.16658ZM11.0417 6.66658C10.9588 6.66541 10.8766 6.68071 10.7998 6.7116C10.7229 6.74248 10.653 6.78833 10.594 6.84648C10.535 6.90464 10.4882 6.97393 10.4562 7.05034C10.4242 7.12675 10.4078 7.20876 10.4078 7.29158C10.4078 7.37441 10.4242 7.45641 10.4562 7.53282C10.4882 7.60924 10.535 7.67853 10.594 7.73668C10.653 7.79484 10.7229 7.84069 10.7998 7.87157C10.8766 7.90245 10.9588 7.91775 11.0417 7.91658C11.3944 7.91658 11.6667 8.18888 11.6667 8.54158C11.6655 8.6244 11.6808 8.70663 11.7117 8.78348C11.7426 8.86034 11.7884 8.93029 11.8466 8.98927C11.9047 9.04825 11.974 9.09509 12.0504 9.12706C12.1268 9.15902 12.2088 9.17549 12.2917 9.17549C12.3745 9.17549 12.4565 9.15902 12.5329 9.12706C12.6093 9.09509 12.6786 9.04825 12.7368 8.98927C12.7949 8.93029 12.8408 8.86034 12.8717 8.78348C12.9025 8.70663 12.9178 8.6244 12.9167 8.54158C12.9167 7.51346 12.0698 6.66658 11.0417 6.66658Z" fill="white"/>
</svg>
