<svg width="20" height="20" viewBox="0 0 20 20" fill="none" xmlns="http://www.w3.org/2000/svg">
<path d="M18.6667 4.62485C18.0287 4.90819 17.3433 5.09885 16.624 5.18485C17.3587 4.74485 17.922 4.04819 18.1873 3.21752C17.5007 3.62485 16.7393 3.92085 15.9287 4.08085C15.28 3.38952 14.356 2.95752 13.3333 2.95752C11.3693 2.95752 9.77734 4.55019 9.77734 6.51352C9.77734 6.79219 9.80934 7.06419 9.86934 7.32352C6.914 7.17552 4.294 5.75952 2.53934 3.60752C2.23401 4.13285 2.05867 4.74352 2.05867 5.39619C2.05867 6.62952 2.68601 7.71819 3.64001 8.35552C3.05734 8.33685 2.50867 8.17685 2.02934 7.91085C2.02934 7.92619 2.02934 7.94019 2.02934 7.95552C2.02934 9.67885 3.25467 11.1162 4.882 11.4422C4.584 11.5235 4.26934 11.5669 3.94467 11.5669C3.716 11.5669 3.49267 11.5442 3.27601 11.5035C3.72867 12.9162 5.04201 13.9449 6.598 13.9735C5.38134 14.9275 3.84801 15.4962 2.18134 15.4962C1.89467 15.4962 1.61134 15.4795 1.33267 15.4462C2.90667 16.4549 4.77534 17.0435 6.784 17.0435C13.3253 17.0435 16.9013 11.6249 16.9013 6.92552C16.9013 6.77152 16.898 6.61819 16.8913 6.46552C17.5867 5.96352 18.19 5.33752 18.6667 4.62485Z" fill="#D0D0D1"/>
</svg>
