<svg width="20" height="20" viewBox="0 0 20 20" fill="none" xmlns="http://www.w3.org/2000/svg">
<path d="M10 1.6665C5.40419 1.6665 1.66669 5.404 1.66669 9.99984C1.66669 11.329 1.98752 12.6415 2.59585 13.8207L1.70419 17.0123C1.60419 17.3748 1.70835 17.7623 1.97085 18.029C2.17085 18.2248 2.43752 18.3332 2.70835 18.3332C2.80419 18.3332 2.89585 18.3207 2.98752 18.2957L6.17919 17.404C7.35835 18.0123 8.67502 18.3332 10 18.3332C14.5959 18.3332 18.3334 14.5957 18.3334 9.99984C18.3334 5.404 14.5959 1.6665 10 1.6665ZM14.3167 13.0707C14.1334 13.5832 13.2334 14.079 12.8292 14.1165C12.425 14.154 12.0459 14.2998 10.1875 13.5665C7.94585 12.6832 6.52919 10.3873 6.42085 10.2373C6.30835 10.0915 5.52085 9.04567 5.52085 7.95817C5.52085 6.87484 6.09169 6.3415 6.29169 6.12067C6.49585 5.89984 6.73335 5.84567 6.87919 5.84567C7.02919 5.84567 7.17502 5.84567 7.30419 5.84984C7.45835 5.85817 7.63335 5.8665 7.80002 6.23317C7.99585 6.6665 8.42502 7.75817 8.47919 7.87067C8.53335 7.979 8.57085 8.10817 8.49585 8.254C8.42502 8.39984 8.38752 8.4915 8.27502 8.62067C8.16669 8.74984 8.04585 8.90817 7.94585 9.00817C7.83752 9.1165 7.72085 9.23734 7.85002 9.45817C7.97919 9.679 8.42085 10.3998 9.07502 10.9832C9.91669 11.7332 10.625 11.9665 10.8459 12.079C11.0667 12.1873 11.1959 12.1707 11.325 12.0207C11.4542 11.8748 11.875 11.379 12.025 11.1582C12.1709 10.9373 12.3167 10.9748 12.5209 11.0498C12.7209 11.1207 13.8042 11.654 14.025 11.7665C14.2459 11.8748 14.3917 11.929 14.4459 12.0207C14.5 12.1123 14.5 12.554 14.3167 13.0707Z" fill="#D0D0D1"/>
</svg>
