<svg width="20" height="20" viewBox="0 0 20 20" fill="none" xmlns="http://www.w3.org/2000/svg">
<path d="M17.9594 5.8001C17.8 4.92041 17.0406 4.27979 16.1594 4.07979C14.8406 3.8001 12.4 3.6001 9.75939 3.6001C7.12033 3.6001 4.64064 3.8001 3.32033 4.07979C2.44064 4.27979 1.6797 4.87979 1.52032 5.8001C1.35939 6.8001 1.20001 8.2001 1.20001 10.0001C1.20001 11.8001 1.35939 13.2001 1.55939 14.2001C1.72032 15.0798 2.4797 15.7204 3.35939 15.9204C4.75939 16.2001 7.15939 16.4001 9.80001 16.4001C12.4406 16.4001 14.8406 16.2001 16.2406 15.9204C17.1203 15.7204 17.8797 15.1204 18.0406 14.2001C18.2 13.2001 18.4 11.7595 18.4406 10.0001C18.3594 8.2001 18.1594 6.8001 17.9594 5.8001ZM7.60001 12.8001V7.2001L12.4797 10.0001L7.60001 12.8001Z" fill="#D0D0D1"/>
</svg>
